<?xml version="1.0" standalone="no"?>
<!DOCTYPE svg PUBLIC "-//W3C//DTD SVG 20010904//EN"
 "http://www.w3.org/TR/2001/REC-SVG-20010904/DTD/svg10.dtd">
<svg version="1.0" xmlns="http://www.w3.org/2000/svg"
 width="3072.000000pt" height="3257.000000pt" viewBox="0 0 3072.000000 1257.000000"
 preserveAspectRatio="xMidYMid meet">

<g transform="translate(0.000000,1257.000000) scale(0.100000,-0.100000)"
fill="#000000" stroke="none">
<path d="M7049 9143 c-1014 -3 -1077 -4 -1084 -21 -49 -126 -1463 -4178 -1477
-4232 -25 -99 -34 -282 -19 -393 61 -454 382 -833 845 -996 49 -17 90 -30 92
-28 2 2 319 916 704 2033 386 1116 719 2082 742 2147 l41 117 1028 0 1028 0
25 78 c63 200 79 478 38 658 -62 275 -221 477 -474 605 l-78 39 -167 -2 c-93
-2 -652 -4 -1244 -5z"/>
<path d="M5560 9105 c-230 -60 -396 -123 -611 -231 -468 -236 -844 -595 -1108
-1059 l-51 -90 706 -3 c389 -1 709 0 712 2 7 8 482 1401 479 1407 -1 3 -58 -8
-127 -26z"/>
<path d="M11677 7586 c-418 -74 -720 -339 -851 -746 -57 -176 -70 -276 -70
-525 -1 -188 3 -236 22 -331 41 -207 107 -359 218 -507 147 -195 360 -332 607
-390 132 -30 410 -30 544 1 302 69 508 231 646 507 45 90 100 246 90 256 -15
13 -467 151 -470 142 -2 -4 -18 -52 -37 -105 -18 -54 -48 -123 -67 -154 -46
-76 -144 -166 -223 -204 -173 -82 -405 -58 -559 58 -179 136 -252 325 -264
682 -9 272 23 468 100 615 43 82 155 193 235 233 175 86 411 81 563 -13 98
-61 180 -165 215 -275 9 -30 18 -56 20 -58 2 -4 477 108 483 114 9 8 -44 144
-91 236 -111 217 -318 375 -583 444 -85 22 -126 27 -275 30 -119 2 -200 -1
-253 -10z"/>
<path d="M22162 6338 c-166 -695 -302 -1266 -302 -1270 0 -5 76 -8 170 -8
l169 0 10 38 c26 98 601 2482 601 2491 0 7 -58 11 -173 11 l-173 0 -302 -1262z"/>
<path d="M13320 6330 l0 -1230 935 0 935 0 0 205 0 205 -687 2 -688 3 0 335 0
335 618 3 617 2 0 205 0 205 -620 0 -620 0 2 273 3 272 663 3 662 2 0 205 0
205 -910 0 -910 0 0 -1230z"/>
<path d="M15620 6330 l0 -1230 245 0 245 0 0 525 0 525 515 0 515 0 0 205 0
205 -515 0 -515 0 0 295 0 295 595 0 595 0 0 205 0 205 -840 0 -840 0 0 -1230z"/>
<path d="M17720 6330 l0 -1230 930 0 930 0 0 205 0 205 -685 0 -685 0 0 340 0
340 620 0 620 0 0 205 0 205 -620 0 -620 0 0 275 0 275 665 0 665 0 0 205 0
205 -910 0 -910 0 0 -1230z"/>
<path d="M19830 7355 l0 -205 365 0 365 0 0 -1025 0 -1025 250 0 250 0 0 1025
0 1025 365 0 365 0 0 205 0 205 -980 0 -980 0 0 -205z"/>
<path d="M23070 6330 l0 -1230 245 0 245 0 0 515 0 515 101 0 c124 0 232 -16
284 -42 109 -55 162 -121 506 -637 l234 -350 297 -1 297 0 -180 288 c-345 549
-406 626 -594 749 l-73 48 107 26 c282 69 450 222 517 469 27 100 25 292 -4
395 -57 198 -189 351 -358 414 -162 61 -302 71 -1021 71 l-603 0 0 -1230z
m1297 796 c72 -23 133 -72 168 -136 27 -50 30 -63 30 -150 -1 -127 -27 -185
-115 -252 -71 -54 -121 -60 -522 -65 l-368 -5 0 317 0 317 378 -5 c313 -4 386
-7 429 -21z"/>
<path d="M26440 6723 c0 -495 -4 -875 -10 -928 -15 -130 -37 -192 -85 -240
-88 -89 -279 -98 -385 -20 -74 55 -116 149 -127 288 -3 45 -11 81 -18 83 -6 3
-109 -7 -228 -21 -119 -14 -219 -25 -222 -25 -10 0 -5 -106 10 -195 50 -307
219 -505 492 -576 164 -42 410 -35 573 17 193 61 355 213 425 398 58 155 58
151 62 1144 l4 912 -246 0 -245 0 0 -837z"/>
<path d="M6946 7042 c-2 -4 -119 -318 -259 -697 -141 -380 -260 -702 -266
-718 l-11 -27 758 2 759 3 84 42 c91 45 169 108 212 170 15 22 102 239 192
482 184 494 187 508 141 606 -28 61 -56 87 -121 117 l-50 23 -717 3 c-394 1
-719 -1 -722 -6z"/>
<path d="M6608 4813 c-269 -2 -488 -4 -488 -6 0 -2 -103 -302 -230 -667 -126
-366 -230 -670 -230 -678 0 -10 16 -11 68 -6 522 47 1090 290 1542 658 106 86
289 265 380 371 76 89 221 279 240 316 10 19 2 19 -392 17 -222 -2 -622 -4
-890 -5z"/>
</g>
</svg>
